<?xml version="1.0" standalone="no"?>
<!DOCTYPE svg PUBLIC "-//W3C//DTD SVG 20010904//EN"
 "http://www.w3.org/TR/2001/REC-SVG-20010904/DTD/svg10.dtd">
<svg version="1.0" xmlns="http://www.w3.org/2000/svg"
 width="1227.000000pt" height="1280.000000pt" viewBox="0 0 1227.000000 1280.000000"
 preserveAspectRatio="xMidYMid meet">
<metadata>
Created by potrace 1.15, written by Peter Selinger 2001-2017
</metadata>
<g transform="translate(0.000000,1280.000000) scale(0.100000,-0.100000)"
fill="#000000" stroke="none">
<path d="M4454 12787 c-84 -33 -134 -105 -134 -193 0 -65 22 -105 108 -201
177 -197 303 -406 337 -558 37 -163 2 -312 -113 -490 -32 -49 -143 -191 -246
-315 -103 -124 -217 -267 -253 -318 -278 -397 -315 -763 -118 -1180 95 -200
313 -494 400 -539 16 -9 53 -16 82 -16 115 0 206 87 206 195 0 67 -18 109 -78
179 -139 165 -265 382 -302 519 -26 98 -24 247 5 335 52 157 117 254 379 568
351 421 448 609 460 897 11 247 -57 455 -235 721 -76 114 -237 307 -296 356
-60 49 -137 65 -202 40z"/>
<path d="M6205 12787 c-88 -35 -135 -101 -135 -191 0 -72 15 -101 105 -201
174 -192 306 -408 341 -560 19 -83 14 -205 -11 -280 -49 -147 -118 -249 -368
-547 -230 -275 -294 -366 -371 -528 -195 -413 -118 -833 238 -1298 130 -170
175 -205 262 -205 121 0 214 94 206 208 -5 64 -18 91 -84 173 -202 249 -301
452 -314 639 -8 111 11 193 70 318 57 118 110 191 333 458 246 295 338 435
409 623 86 230 66 516 -54 768 -87 183 -234 388 -386 541 -90 91 -159 114
-241 82z"/>
<path d="M7955 12788 c-83 -30 -136 -104 -136 -192 0 -71 15 -99 125 -224 175
-200 276 -367 316 -526 35 -138 24 -234 -40 -373 -55 -117 -113 -200 -294
-417 -258 -310 -320 -395 -395 -543 -223 -444 -134 -898 271 -1392 106 -130
164 -161 257 -140 63 14 98 38 132 89 28 41 30 51 27 115 -4 78 3 67 -153 270
-93 121 -181 282 -215 390 -48 158 -35 309 40 464 65 134 93 172 354 485 186
225 251 314 316 439 96 183 125 294 125 482 -1 114 -5 157 -24 230 -46 177
-131 344 -268 527 -215 286 -316 359 -438 316z"/>
<path d="M2050 8290 c0 -19 7 -141 15 -270 101 -1586 361 -3321 664 -4436 143
-526 270 -881 436 -1219 124 -253 226 -412 349 -542 l49 -53 2572 0 2572 0 49
53 c211 223 420 629 609 1177 397 1154 746 3290 851 5205 l7 120 -4087 0
-4086 0 0 -35z"/>
<path d="M0 1385 c0 -25 64 -144 128 -241 174 -259 479 -521 862 -741 281
-162 620 -302 900 -374 l115 -29 4130 0 4130 0 133 35 c705 186 1434 650 1743
1109 65 96 129 216 129 241 0 13 -644 15 -6135 15 -5491 0 -6135 -2 -6135 -15z"/>
</g>
</svg>
